<svg xmlns="http://www.w3.org/2000/svg" version="1.1" xmlns:xlink="http://www.w3.org/1999/xlink" xmlns:svgjs="http://svgjs.dev/svgjs" width="506" height="505" preserveAspectRatio="none" viewBox="0 0 506 505"><g mask="url(&quot;#SvgjsMask1167&quot;)" fill="none"><path d="M 0,24 C 17,67.8 51,225.2 85,243 C 119,260.8 136,136.2 170,113 C 204,89.8 221,130.8 255,127 C 289,123.2 306,81.2 340,94 C 374,106.8 391.8,208.4 425,191 C 458.2,173.6 489.8,43.8 506,7L506 505L0 505z" fill="rgba(249, 148, 59, 1)"></path><path d="M 0,460 C 25.4,441.8 76.2,369.4 127,369 C 177.8,368.6 203.2,478 254,458 C 304.8,438 330.6,270.6 381,269 C 431.4,267.4 481,413.8 506,450L506 505L0 505z" fill="rgba(208, 83, 1, 1)"></path></g><defs><mask id="SvgjsMask1167"><rect width="506" height="505" fill="#ffffff"></rect></mask></defs></svg>